<?xml version="1.0" encoding="UTF-8"?>
<svg version="1.1" xmlns="http://www.w3.org/2000/svg" width="866" height="650">
<path d="M0 0 C285.78 0 571.56 0 866 0 C866 214.5 866 429 866 650 C580.22 650 294.44 650 0 650 C0 435.5 0 221 0 0 Z " fill="#FEFEFE" transform="translate(0,0)"/>
<path d="M0 0 C15.51 0 31.02 0 47 0 C47 15.84 47 31.68 47 48 C31.49 48 15.98 48 0 48 C0 63.51 0 79.02 0 95 C15.51 95 31.02 95 47 95 C47 110.84 47 126.68 47 143 C31.49 143 15.98 143 0 143 C0 158.51 0 174.02 0 190 C-15.84 190 -31.68 190 -48 190 C-48 174.16 -48 158.32 -48 142 C-32.49 142 -16.98 142 -1 142 C-1 126.49 -1 110.98 -1 95 C-16.51 95 -32.02 95 -48 95 C-48 79.49 -48 63.98 -48 48 C-32.49 47.67 -16.98 47.34 -1 47 C-0.67 31.49 -0.34 15.98 0 0 Z " fill="#070707" transform="translate(253,206)"/>
<path d="M0 0 C15.51 0 31.02 0 47 0 C47 15.51 47 31.02 47 47 C31.49 47 15.98 47 0 47 C0 31.49 0 15.98 0 0 Z " fill="#000000" transform="translate(253,396)"/>
<path d="M0 0 C15.51 0 31.02 0 47 0 C47 15.51 47 31.02 47 47 C31.49 47 15.98 47 0 47 C0 31.49 0 15.98 0 0 Z " fill="#010101" transform="translate(205,254)"/>
<path d="M0 0 C15.51 0 31.02 0 47 0 C47 15.51 47 31.02 47 47 C31.49 47 15.98 47 0 47 C0 31.49 0 15.98 0 0 Z " fill="#010101" transform="translate(253,206)"/>
<path d="M0 0 C5.26796763 2.89381587 7.89182961 6.68070376 9.8125 12.3125 C10.68379378 19.65770923 10.37962613 26.27886549 5.8125 32.3125 C2.61523417 35.65168102 -0.50008962 38.0463184 -5.23828125 38.515625 C-10.33118344 38.62117738 -13.83312746 38.24916985 -18.1875 35.3125 C-23.11832929 30.24470323 -24.30160816 25.35113378 -24.5625 18.4375 C-24.43611259 12.06283492 -23.14823375 7.40465013 -18.69140625 2.75 C-12.97008863 -2.272204 -6.93410292 -3.20831628 0 0 Z " fill="#0C0C0C" transform="translate(390.1875,351.6875)"/>
<path d="M0 0 C0 4.62 0 9.24 0 14 C5.94 14 11.88 14 18 14 C19.1334376 16.80934934 20.25681938 19.62208095 21.375 22.4375 C21.85066406 23.6121582 21.85066406 23.6121582 22.3359375 24.81054688 C24.44808277 30.15691459 25.88210893 35.35973141 27 41 C27.66 41 28.32 41 29 41 C29.13921875 39.83404297 29.13921875 39.83404297 29.28125 38.64453125 C30.2338642 33.81415599 31.84714992 29.31747162 33.5 24.6875 C33.82097656 23.76904297 34.14195312 22.85058594 34.47265625 21.90429688 C36.86372321 15.13627679 36.86372321 15.13627679 38 14 C39.66617115 13.95936168 41.33388095 13.957279 43 14 C41.78663393 20.04994191 40.18019805 25.78437343 38.06640625 31.578125 C37.78780258 32.35258972 37.50919891 33.12705444 37.22215271 33.92498779 C36.63738109 35.54602303 36.0498725 37.16607338 35.4597168 38.78515625 C34.56069823 41.25494983 33.67337551 43.72873068 32.78710938 46.203125 C32.21423442 47.78670911 31.64068994 49.37005122 31.06640625 50.953125 C30.6725045 52.05324921 30.6725045 52.05324921 30.27064514 53.17559814 C26.72091354 62.8527243 26.72091354 62.8527243 22 66 C19.73828125 66.1953125 19.73828125 66.1953125 17.3125 66.125 C16.50425781 66.10695313 15.69601562 66.08890625 14.86328125 66.0703125 C14.24839844 66.04710937 13.63351562 66.02390625 13 66 C13 64.35 13 62.7 13 61 C14.258125 60.773125 15.51625 60.54625 16.8125 60.3125 C19.86336431 59.53355592 20.83727537 59.17258673 23.0625 56.8125 C25.24154738 50.27535787 21.95375764 43.72246347 19.5625 37.625 C17.14923127 31.45499336 15.29718836 25.50549743 14 19 C9.38 19 4.76 19 0 19 C0.14029459 23.12525788 0.28697311 27.25011392 0.4375 31.375 C0.47681641 32.550625 0.51613281 33.72625 0.55664062 34.9375 C0.61948242 36.61972656 0.61948242 36.61972656 0.68359375 38.3359375 C0.72025146 39.37282715 0.75690918 40.4097168 0.79467773 41.47802734 C0.84164223 43.99425166 0.84164223 43.99425166 2 46 C4.12576782 46.46651207 4.12576782 46.46651207 6.5625 46.625 C7.38878906 46.69976562 8.21507812 46.77453125 9.06640625 46.8515625 C9.70449219 46.90054688 10.34257813 46.94953125 11 47 C11 48.65 11 50.3 11 52 C-0.08823183 52.7845447 -0.08823183 52.7845447 -3.6875 49.6875 C-5.66692627 45.63438907 -6.12032463 42.70395258 -6.09765625 38.23828125 C-6.09443359 37.12001953 -6.09121094 36.00175781 -6.08789062 34.84960938 C-6.07951172 33.68236328 -6.07113281 32.51511719 -6.0625 31.3125 C-6.05798828 30.13365234 -6.05347656 28.95480469 -6.04882812 27.74023438 C-6.03703273 24.82677211 -6.0205727 21.91341137 -6 19 C-7.98 19 -9.96 19 -12 19 C-12 17.35 -12 15.7 -12 14 C-10.02 14 -8.04 14 -6 14 C-6 9.71 -6 5.42 -6 1 C-4 0 -4 0 0 0 Z " fill="#0D0D0D" transform="translate(618,260)"/>
<path d="M0 0 C4.75900937 2.64800911 6.61135414 5.54827469 8.875 10.5 C8.875 13.8 8.875 17.1 8.875 20.5 C-0.035 20.5 -8.945 20.5 -18.125 20.5 C-16.83137357 28.03899006 -16.83137357 28.03899006 -12.125 32.5 C-8.33148896 33.25870221 -4.72412023 33.53620123 -1.3828125 31.37109375 C-0.63644531 30.69240234 -0.63644531 30.69240234 0.125 30 C2.875 27.5 2.875 27.5 5.75 27.1875 C6.45125 27.290625 7.1525 27.39375 7.875 27.5 C7.65587133 31.33475164 6.93471606 32.44164113 4.125 35.1875 C-1.05787152 38.87531243 -4.7055602 40.15282439 -11.125 39.5 C-16.39149148 37.67546643 -20.09285202 35.28146411 -23.125 30.5 C-26.34789889 23.51705242 -26.07295832 16.33313998 -23.5625 9.125 C-21.3691876 4.19788036 -18.78393125 2.12594307 -14.125 -0.5 C-9.1250025 -2.16666583 -4.83845913 -2.07623861 0 0 Z " fill="#0F0F0F" transform="translate(576.125,351.5)"/>
<path d="M0 0 C4.45146251 2.18526342 7.18885145 4.9394521 10 9 C11 12 11 12 11 20 C2.09 20 -6.82 20 -16 20 C-14.69144825 28.17637003 -14.69144825 28.17637003 -12.4375 31.5625 C-8.70472365 33.76388093 -5.21433459 33.90468721 -1 33 C1.8971941 30.68726558 1.8971941 30.68726558 4 28 C7.13349732 26.95550089 7.98968256 27.06576355 11 28 C9.43657384 33.47199156 5.90907595 36.27499009 1.109375 39.12109375 C-2.81369625 40.75570677 -6.83726699 40.53351483 -11 40 C-16.33344474 37.33327763 -19.69383676 33.7429428 -22.25 28.375 C-23.85785919 21.13963362 -24.05060594 14.27864319 -20.28125 7.72265625 C-14.81668319 0.37547954 -8.77180897 -0.89331011 0 0 Z " fill="#060606" transform="translate(517,273)"/>
<path d="M0 0 C10.56 0 21.12 0 32 0 C32 1.98 32 3.96 32 6 C23.75 6 15.5 6 7 6 C7 11.28 7 16.56 7 22 C13.6 22 20.2 22 27 22 C27 23.65 27 25.3 27 27 C20.4 27 13.8 27 7 27 C7 33.27 7 39.54 7 46 C15.58 46 24.16 46 33 46 C33 47.98 33 49.96 33 52 C22.11 52 11.22 52 0 52 C0 34.84 0 17.68 0 0 Z " fill="#101010" transform="translate(443,338)"/>
<path d="M0 0 C2.31 0 4.62 0 7 0 C7.01458252 1.08941895 7.02916504 2.17883789 7.04418945 3.30126953 C7.10236072 7.36067785 7.17959182 11.41954237 7.26245117 15.47851562 C7.2956122 17.23200627 7.32367142 18.98560138 7.34643555 20.73925781 C7.3801447 23.26672698 7.43246692 25.79324638 7.48828125 28.3203125 C7.49467117 29.09867462 7.5010611 29.87703674 7.50764465 30.6789856 C7.63605899 35.48176662 8.37934373 38.82602095 11 43 C15.34241035 45.89494023 20.96593608 45.52990146 26 45 C29.20509976 43.73131468 30.49422673 42.9557115 32.09912109 39.9230957 C33.28009814 36.09116124 33.35547776 32.39179638 33.4140625 28.41796875 C33.43342865 27.60378983 33.4527948 26.7896109 33.4727478 25.95075989 C33.53228752 23.36311148 33.57882583 20.77541797 33.625 18.1875 C33.6632034 16.42771551 33.7022565 14.66794926 33.7421875 12.90820312 C33.83796782 8.60561766 33.92209285 4.3029447 34 0 C35.65 0 37.3 0 39 0 C39.09913284 5.72911572 39.1715934 11.45772839 39.21972656 17.1875 C39.23979906 19.13517966 39.26706332 21.08279937 39.30175781 23.03027344 C39.35046852 25.83543721 39.37301241 28.63980187 39.390625 31.4453125 C39.41127014 32.31116974 39.43191528 33.17702698 39.45318604 34.06912231 C39.45520714 39.55728828 38.64295604 42.63507013 35 47 C29.8576415 51.6447109 24.56542852 52.39488442 17.85546875 52.25 C12.19913175 51.75478034 7.63119517 50.63119517 3.5625 46.5625 C1.3167067 42.87939899 -0.25476467 40.25281725 -0.22705078 35.87402344 C-0.22689972 35.07349548 -0.22674866 34.27296753 -0.22659302 33.44818115 C-0.21110916 32.16672211 -0.21110916 32.16672211 -0.1953125 30.859375 C-0.1924826 29.97719299 -0.18965271 29.09501099 -0.18673706 28.18609619 C-0.17555961 25.37392501 -0.15045951 22.5620746 -0.125 19.75 C-0.11496705 17.84115044 -0.10584175 15.93229588 -0.09765625 14.0234375 C-0.07562824 9.34883511 -0.04111511 4.67447191 0 0 Z " fill="#080808" transform="translate(366,261)"/>
<path d="M0 0 C3.5625 1.8125 3.5625 1.8125 6 4 C6.61875 4.515625 7.2375 5.03125 7.875 5.5625 C9 7 9 7 9 10 C6.3125 10.25 6.3125 10.25 3 10 C2.236875 9.34 1.47375 8.68 0.6875 8 C-2.72339246 5.46166143 -4.87762053 5.59458186 -9.01171875 5.6640625 C-11.22717438 5.84089259 -11.22717438 5.84089259 -13 8 C-13.16681109 11.08347826 -13.16681109 11.08347826 -13 14 C-11.91460937 14.17015625 -10.82921875 14.3403125 -9.7109375 14.515625 C-8.26549711 14.75966039 -6.82019144 15.00449462 -5.375 15.25 C-4.66214844 15.35957031 -3.94929688 15.46914063 -3.21484375 15.58203125 C2.28405251 16.54055445 6.76887584 18.28384885 10.4375 22.75 C11.3308826 26.32353041 11.19108463 29.54996177 10 33 C7.51916778 36.03047768 4.72503028 37.75832324 1 39 C-7.13757904 39.61061199 -12.88618745 39.35600498 -19.375 34.0625 C-21 32 -21 32 -21 28 C-19.35 27.67 -17.7 27.34 -16 27 C-15.38125 27.804375 -14.7625 28.60875 -14.125 29.4375 C-12.25835959 32.03874519 -12.25835959 32.03874519 -10 33 C-8.35744209 33.12114921 -6.70947522 33.17540767 -5.0625 33.1875 C-4.18722656 33.20167969 -3.31195313 33.21585937 -2.41015625 33.23046875 C0.26244335 33.16663349 0.26244335 33.16663349 3 31 C3.5 28.5 3.5 28.5 3 26 C-0.26336664 23.82442224 -2.49432777 23.37366122 -6.3125 22.625 C-15.69188916 20.49189477 -15.69188916 20.49189477 -19 17 C-20.37960842 12.74953012 -20.50574078 9.29244866 -18.875 5.125 C-13.59515601 -0.85882319 -7.51820301 -0.93722856 0 0 Z " fill="#101010" transform="translate(501,351)"/>
<path d="M0 0 C3.31804319 1.33100211 5.48261708 3.48261708 8 6 C8 7.32 8 8.64 8 10 C6.35 10 4.7 10 3 10 C2.67 9.01 2.34 8.02 2 7 C-1.00286963 5.82584423 -3.99260737 5.86556162 -7.1875 5.875 C-8.06792969 5.87242187 -8.94835937 5.86984375 -9.85546875 5.8671875 C-11.98203191 5.76134967 -11.98203191 5.76134967 -13 7 C-13.04080783 8.99958364 -13.04254356 11.00045254 -13 13 C-9.19757836 14.67420057 -5.57898999 15.50663266 -1.5 16.25 C5.696985 17.89642239 5.696985 17.89642239 8.3125 20.625 C10.4579011 24.91580221 10.96861733 28.29144356 10 33 C7.58645058 36.48623805 4.95122408 37.67919422 1 39 C-5.57757966 39.6338844 -12.52459336 40.1785998 -18 36 C-20.216452 33.04473066 -21 31.71253164 -21 28 C-19.35 27.67 -17.7 27.34 -16 27 C-15.7525 27.61875 -15.505 28.2375 -15.25 28.875 C-13.7326618 31.45447495 -12.75584831 31.9130511 -10 33 C-7.51263746 33.31423015 -7.51263746 33.31423015 -4.9375 33.25 C-4.08027344 33.25515625 -3.22304688 33.2603125 -2.33984375 33.265625 C0.27052798 33.14992488 0.27052798 33.14992488 3 31 C3.25030977 28.41619823 3.25030977 28.41619823 3 26 C-1.56543838 24.19105272 -5.96690573 22.74854563 -10.75 21.625 C-14.13391211 20.70510156 -15.89903462 20.07983309 -18.6875 17.875 C-20.52797253 13.84348875 -21.06990938 10.34257337 -20 6 C-14.79729401 -0.72544921 -7.84651947 -0.76826235 0 0 Z " fill="#121212" transform="translate(538,351)"/>
<path d="M0 0 C2.92402125 1.97201433 4.73531168 3.88421752 6.6875 6.8125 C6.6875 7.4725 6.6875 8.1325 6.6875 8.8125 C4.7075 9.1425 2.7275 9.4725 0.6875 9.8125 C0.3575 8.8225 0.0275 7.8325 -0.3125 6.8125 C-4.27653017 4.59730667 -7.83728495 4.48100259 -12.3125 4.8125 C-13.3025 5.4725 -14.2925 6.1325 -15.3125 6.8125 C-15.8125 9.3125 -15.8125 9.3125 -15.3125 11.8125 C-11.08538797 14.63057469 -6.71370638 14.96260588 -1.7578125 15.8359375 C1.94941487 16.88673891 3.92168324 18.16915484 6.6875 20.8125 C8.29180264 24.02110529 8.16855318 27.3315457 7.6875 30.8125 C5.29119759 34.89508929 3.12703153 36.40302635 -1.3125 37.8125 C-4.6875 38.11328125 -4.6875 38.11328125 -8.3125 38.125 C-9.50875 38.14175781 -10.705 38.15851563 -11.9375 38.17578125 C-16.84184692 37.6478828 -19.32459808 35.88050208 -22.625 32.3125 C-24.3125 29.8125 -24.3125 29.8125 -24.3125 26.8125 C-22.125 26.5 -22.125 26.5 -19.3125 26.8125 C-16.6875 29.25 -16.6875 29.25 -14.3125 31.8125 C-9.68400265 33.35533245 -5.23341508 33.72493466 -0.8125 31.625 C0.93799111 29.85636734 0.93799111 29.85636734 0.9375 27.125 C0.855 26.361875 0.7725 25.59875 0.6875 24.8125 C-2.4364289 23.03787372 -5.14246343 22.42407365 -8.6875 21.9375 C-13.59558613 21.1052878 -16.51956604 20.02190566 -20.3125 16.8125 C-22.76567946 13.1327308 -23.13050789 10.08617389 -22.3125 5.8125 C-16.67091957 -1.60214856 -8.54431368 -3.06305585 0 0 Z " fill="#131313" transform="translate(579.3125,274.1875)"/>
<path d="M0 0 C3.4850145 2.2177365 5.52524474 4.15908184 7 8 C7.30078125 11.2421875 7.30078125 11.2421875 7.3125 14.875 C7.32925781 16.06867188 7.34601563 17.26234375 7.36328125 18.4921875 C6.96698063 22.31883219 5.97389537 24.72149074 4 28 C1.51543895 29.95215511 -0.26468047 30.03368661 -3.4375 30.4375 C-7.96119453 29.88195857 -9.20483622 28.51392018 -12 25 C-15.04019012 20.07169181 -14.61431526 14.59626218 -14 9 C-10.89980498 2.6888887 -7.28315881 -1.04045126 0 0 Z " fill="#F6F6F6" transform="translate(386,355)"/>
<path d="M0 0 C3.41377603 1.67585369 5.38052918 2.81072669 7.14794922 6.20385742 C8.1842398 9.60461273 8.22556502 12.49611004 8.1953125 16.05078125 C8.1924826 16.70958786 8.18965271 17.36839447 8.18673706 18.04716492 C8.17560924 20.13580062 8.15051948 22.22399556 8.125 24.3125 C8.11496059 25.73501982 8.10583642 27.1575464 8.09765625 28.58007812 C8.07569447 32.05352681 8.04121646 35.52672033 8 39 C6.35 39 4.7 39 3 39 C2.9906543 38.10692139 2.98130859 37.21384277 2.97167969 36.29370117 C2.92764696 32.97764838 2.86603139 29.66289061 2.79248047 26.34741211 C2.76426818 24.91296317 2.74305476 23.47835871 2.72900391 22.04370117 C2.70757551 19.98014698 2.66093533 17.91846294 2.609375 15.85546875 C2.58842773 14.61434326 2.56748047 13.37321777 2.54589844 12.09448242 C2.28754625 8.93964263 2.28754625 8.93964263 0.14941406 7.09106445 C-2.75193137 5.61831198 -4.78409882 5.66501029 -8 6 C-10.53670801 6.84556934 -11.6356586 7.43353862 -13.08349609 9.68457031 C-14.25087081 12.63379295 -14.32436148 15.12743882 -14.4140625 18.296875 C-14.45273437 19.50214844 -14.49140625 20.70742188 -14.53125 21.94921875 C-14.57765625 23.83060547 -14.57765625 23.83060547 -14.625 25.75 C-14.68300781 27.65458984 -14.68300781 27.65458984 -14.7421875 29.59765625 C-14.83644222 32.7316257 -14.92205166 35.86558949 -15 39 C-16.98 39 -18.96 39 -21 39 C-21 26.46 -21 13.92 -21 1 C-19.35 1 -17.7 1 -16 1 C-15.67 2.32 -15.34 3.64 -15 5 C-14.195625 4.175 -13.39125 3.35 -12.5625 2.5 C-8.62607204 -0.76639767 -4.92520091 -0.95155939 0 0 Z " fill="#111111" transform="translate(434,273)"/>
<path d="M0 0 C2.625 -0.5625 2.625 -0.5625 6 0 C8.90502953 3.30572326 11.0374179 7.07483581 13 11 C13.66 11 14.32 11 15 11 C16.76710324 8.19449589 18.35428553 5.31056391 19.953125 2.40625 C22 0 22 0 25.234375 -0.34375 C26.60335937 -0.17359375 26.60335937 -0.17359375 28 0 C26.51364884 4.21654356 24.38750841 7.62478605 21.875 11.3125 C21.15054688 12.38113281 20.42609375 13.44976562 19.6796875 14.55078125 C19.12539063 15.35902344 18.57109375 16.16726563 18 17 C20.75626089 22.84327309 23.95776144 28.1864087 27.51171875 33.58203125 C29 36 29 36 30 39 C26.9375 39.6875 26.9375 39.6875 23 39 C20.85093978 36.37385717 19.2338135 33.65856853 17.578125 30.69921875 C16.21540999 28.36843639 15.00498074 26.76945589 13 25 C12.41992188 26.010625 11.83984375 27.02125 11.2421875 28.0625 C10.4542736 29.37568984 9.66514734 30.68815281 8.875 32 C8.49601563 32.66773438 8.11703125 33.33546875 7.7265625 34.0234375 C6.5546875 35.9375 6.5546875 35.9375 4 39 C0.6953125 39.4375 0.6953125 39.4375 -2 39 C-0.63654311 35.18913799 1.11836734 32.20215324 3.5 28.9375 C7.61361002 23.8140681 7.61361002 23.8140681 8.87890625 17.66796875 C7.73970395 14.20985688 5.91909088 11.33451165 3.9375 8.3125 C0 2.24807692 0 2.24807692 0 0 Z " fill="#121212" transform="translate(589,351)"/>
<path d="M0 0 C2.31 0 4.62 0 7 0 C7.24234375 0.82242187 7.4846875 1.64484375 7.734375 2.4921875 C9.83523538 9.48966862 12.17752579 16.26401113 15 23 C15.66810164 24.66609196 16.33493861 26.33269212 17 28 C17.2673999 27.18732666 17.5347998 26.37465332 17.81030273 25.53735352 C18.80123307 22.53053361 19.79483725 19.52461479 20.7902832 16.51928711 C21.22105089 15.21690951 21.65074225 13.91417542 22.0793457 12.61108398 C22.69461363 10.74109627 23.31404059 8.87247858 23.93359375 7.00390625 C24.30540771 5.87799072 24.67722168 4.7520752 25.06030273 3.59204102 C26 1 26 1 27 0 C28.66617115 -0.04063832 30.33388095 -0.042721 32 0 C30.4484861 7.87626455 28.01290684 15.34147382 25.4375 22.9375 C25.02564453 24.16791016 24.61378906 25.39832031 24.18945312 26.66601562 C21.15491071 35.69017857 21.15491071 35.69017857 20 38 C17.69 38 15.38 38 13 38 C12.06304648 35.42337782 11.12614136 32.84673817 10.18945312 30.27001953 C9.40253059 28.10662864 8.61478303 25.94353764 7.82617188 23.78076172 C6.63095723 20.50081314 5.44019943 17.21927139 4.25 13.9375 C3.83878906 12.81150391 3.42757813 11.68550781 3.00390625 10.52539062 C2.61589844 9.45353516 2.22789062 8.38167969 1.828125 7.27734375 C1.3007373 5.82702759 1.3007373 5.82702759 0.76269531 4.34741211 C0 2 0 2 0 0 Z " fill="#101010" transform="translate(460,274)"/>
<path d="M0 0 C0.78503906 0.00644531 1.57007813 0.01289063 2.37890625 0.01953125 C4.4375 0.1875 4.4375 0.1875 6.4375 1.1875 C6.1075 2.5075 5.7775 3.8275 5.4375 5.1875 C0.9825 5.6825 0.9825 5.6825 -3.5625 6.1875 C-4.2225 8.8275 -4.8825 11.4675 -5.5625 14.1875 C-2.5925 14.1875 0.3775 14.1875 3.4375 14.1875 C3.4375 15.8375 3.4375 17.4875 3.4375 19.1875 C0.4675 19.1875 -2.5025 19.1875 -5.5625 19.1875 C-5.5625 30.4075 -5.5625 41.6275 -5.5625 53.1875 C-7.5425 53.1875 -9.5225 53.1875 -11.5625 53.1875 C-11.5625 41.9675 -11.5625 30.7475 -11.5625 19.1875 C-13.8725 19.1875 -16.1825 19.1875 -18.5625 19.1875 C-18.5625 17.5375 -18.5625 15.8875 -18.5625 14.1875 C-16.2525 14.1875 -13.9425 14.1875 -11.5625 14.1875 C-11.645 13.32125 -11.7275 12.455 -11.8125 11.5625 C-11.50168637 7.36651595 -10.15625096 5.44821549 -7.5625 2.1875 C-4.404724 0.082316 -3.60852866 -0.06539344 0 0 Z " fill="#161616" transform="translate(419.5625,336.8125)"/>
<path d="M0 0 C0 1.65 0 3.3 0 5 C-1.953125 5.55338542 -3.90625 6.10677083 -5.859375 6.66015625 C-9.19118824 8.7455795 -10.73999986 11.3776943 -12 15 C-12.59864831 19.14567542 -12.69536888 23.25325251 -12.75 27.4375 C-12.77964844 28.55060547 -12.80929687 29.66371094 -12.83984375 30.81054688 C-12.91014132 33.54043572 -12.96303663 36.26949039 -13 39 C-14.65 39 -16.3 39 -18 39 C-18 26.46 -18 13.92 -18 1 C-16.35 1 -14.7 1 -13 1 C-12.67 2.98 -12.34 4.96 -12 7 C-11.566875 6.21625 -11.13375 5.4325 -10.6875 4.625 C-7.70879766 -0.00853697 -5.2057861 -0.23136827 0 0 Z " fill="#010101" transform="translate(553,273)"/>
<path d="M0 0 C5.26902999 2.4047892 8.46709091 5.24167484 11.0078125 10.55078125 C12.04405753 13.65062152 12.15042567 16.13701753 12.10546875 19.3984375 C12.09902344 20.43226563 12.09257812 21.46609375 12.0859375 22.53125 C11.91796875 25.2734375 11.91796875 25.2734375 10.91796875 28.2734375 C6.91796875 28.2734375 6.91796875 28.2734375 4.91796875 27.2734375 C4.6566052 24.81127402 4.49649652 22.42994285 4.41796875 19.9609375 C4.18612074 12.52848263 4.18612074 12.52848263 0.16796875 6.5234375 C-2.75914916 4.89726089 -4.77759452 4.99220884 -8.08203125 5.2734375 C-9.07203125 5.6034375 -10.06203125 5.9334375 -11.08203125 6.2734375 C-11.41203125 5.2834375 -11.74203125 4.2934375 -12.08203125 3.2734375 C-13.07203125 2.9434375 -14.06203125 2.6134375 -15.08203125 2.2734375 C-9.96201331 -0.72364617 -5.78707677 -2.01950521 0 0 Z " fill="#0E0E0E" transform="translate(388.08203125,350.7265625)"/>
<path d="M0 0 C9.24 0 18.48 0 28 0 C28 0.33 28 0.66 28 1 C19.09 1 10.18 1 1 1 C2.29362643 8.53899006 2.29362643 8.53899006 7 13 C10.79351104 13.75870221 14.40087977 14.03620123 17.7421875 11.87109375 C18.48855469 11.19240234 18.48855469 11.19240234 19.25 10.5 C22 8 22 8 24.875 7.6875 C25.57625 7.790625 26.2775 7.89375 27 8 C26.78087133 11.83475164 26.05971606 12.94164113 23.25 15.6875 C18.06712848 19.37531243 14.4194398 20.65282439 8 20 C2.75396919 18.18255487 -1.00526189 15.79158097 -4 11 C-4.75 8.6875 -4.75 8.6875 -5 7 C-4.0409375 6.6596875 -4.0409375 6.6596875 -3.0625 6.3125 C-2.381875 5.879375 -1.70125 5.44625 -1 5 C-0.67 3.35 -0.34 1.7 0 0 Z " fill="#252525" transform="translate(557,371)"/>
<path d="M0 0 C1.65 0 3.3 0 5 0 C5.04945571 5.76577504 5.0857461 11.53142646 5.10986328 17.29736328 C5.11991783 19.25864818 5.13356333 21.21991811 5.15087891 23.18115234 C5.17515113 26.00101418 5.18648859 28.82067772 5.1953125 31.640625 C5.20563507 32.51680481 5.21595764 33.39298462 5.22659302 34.29571533 C5.22674408 35.11626404 5.22689514 35.93681274 5.22705078 36.78222656 C5.231492 37.50170471 5.23593323 38.22118286 5.24050903 38.96246338 C4.96199823 41.32194212 4.16589346 42.94641346 3 45 C1.02 44.67 -0.96 44.34 -3 44 C-2.67854004 43.02603271 -2.35708008 42.05206543 -2.02587891 41.04858398 C-0.80646903 36.76264382 -0.65218891 32.65731298 -0.5859375 28.22265625 C-0.56657135 27.41130722 -0.5472052 26.59995819 -0.5272522 25.76402283 C-0.46793034 23.19695228 -0.42126264 20.62983571 -0.375 18.0625 C-0.33677648 16.31183044 -0.29772226 14.56117881 -0.2578125 12.81054688 C-0.16226844 8.54051184 -0.07806463 4.2703889 0 0 Z " fill="#020202" transform="translate(400,261)"/>
<path d="M0 0 C0.7425 0.474375 1.485 0.94875 2.25 1.4375 C7.59414971 4.4739487 12.96713821 4.42955503 19 4 C20.11375 3.62875 21.2275 3.2575 22.375 2.875 C25 2 25 2 27.375 2.875 C28.179375 3.431875 28.179375 3.431875 29 4 C25.1317945 8.19976597 22.17639236 10.62942089 16.421875 11.30078125 C10.2142745 11.32800757 4.60051199 10.87854272 -1 8 C-3.0625 5.8125 -3.0625 5.8125 -4 4 C-2.68 2.68 -1.36 1.36 0 0 Z " fill="#101010" transform="translate(373,302)"/>
<path d="M0 0 C1.65 0 3.3 0 5 0 C5 12.54 5 25.08 5 38 C3.35 38 1.7 38 0 38 C0 25.46 0 12.92 0 0 Z " fill="#020202" transform="translate(594,274)"/>
<path d="M0 0 C1.65 0 3.3 0 5 0 C5 12.54 5 25.08 5 38 C3.35 38 1.7 38 0 38 C0 25.46 0 12.92 0 0 Z " fill="#010101" transform="translate(450,274)"/>
<path d="M0 0 C3.59827589 0.80830835 5.09391516 2.51976867 7.15625 5.484375 C7.48625 7.464375 7.81625 9.444375 8.15625 11.484375 C1.22625 11.484375 -5.70375 11.484375 -12.84375 11.484375 C-11.84375 5.484375 -11.84375 5.484375 -9.84375 2.609375 C-6.29995043 0.09918363 -4.25871018 -0.25552261 0 0 Z " fill="#F4F4F4" transform="translate(513.84375,277.515625)"/>
<path d="M0 0 C2.70839553 1.39577401 3.88975016 2.63240261 6 5 C6 6.98 6 8.96 6 11 C-0.6 11 -7.2 11 -14 11 C-12 4 -12 4 -9.8125 1.5625 C-6.15421082 -0.46988288 -4.13267794 -0.6525281 0 0 Z " fill="#F7F7F7" transform="translate(572,355)"/>
<path d="M0 0 C4.43773264 2.17852329 7.21551041 4.93036136 10 9 C10 9.66 10 10.32 10 11 C8.68 11 7.36 11 6 11 C5.34 11.66 4.68 12.32 4 13 C3.54625 12.030625 3.0925 11.06125 2.625 10.0625 C1.34213779 6.92920418 1.34213779 6.92920418 -1 6 C-2.47668337 5.9047301 -3.95775457 5.87014041 -5.4375 5.875 C-6.21996094 5.87242187 -7.00242187 5.86984375 -7.80859375 5.8671875 C-10.17895347 5.91617452 -10.17895347 5.91617452 -13 7 C-14.22520264 10.00847418 -14.22520264 10.00847418 -15 13 C-16.65 12.67 -18.3 12.34 -20 12 C-20.33 11.01 -20.66 10.02 -21 9 C-19.92578125 7.24609375 -19.92578125 7.24609375 -18.3125 5.4375 C-17.79300781 4.83808594 -17.27351563 4.23867188 -16.73828125 3.62109375 C-11.87270748 -0.91646381 -6.34330553 -0.74572968 0 0 Z " fill="#0E0E0E" transform="translate(517,273)"/>
<path d="M0 0 C1.32 0.33 2.64 0.66 4 1 C5.15927528 4.47782583 5.11313066 7.18803257 5.09765625 10.85546875 C5.0962413 11.51710526 5.09482635 12.17874176 5.09336853 12.86042786 C5.08777996 14.96949828 5.07522965 17.07846177 5.0625 19.1875 C5.05748352 20.61913909 5.05292087 22.05077985 5.04882812 23.48242188 C5.0378143 26.98831588 5.02055755 30.4941475 5 34 C3.35 34 1.7 34 0 34 C0 22.78 0 11.56 0 0 Z " fill="#020202" transform="translate(437,278)"/>
<path d="M0 0 C2.00720923 0.28674418 4.0085944 0.61866701 6 1 C4.43580969 6.47466609 0.90660044 9.26687179 -3.88671875 12.125 C-7.78869424 13.74060538 -11.85690209 13.44175196 -16 13 C-19.125 11.6875 -19.125 11.6875 -21 10 C-21 7 -21 7 -19 5 C-18.67 4.34 -18.34 3.68 -18 3 C-17.59523438 3.4846875 -17.19046875 3.969375 -16.7734375 4.46875 C-14.042189 6.82700862 -11.71317596 6.53012865 -8.2265625 6.43359375 C-4.72560404 5.75182816 -3.13049519 3.72969697 -1 1 C-0.67 0.67 -0.34 0.34 0 0 Z " fill="#080808" transform="translate(522,300)"/>
<path d="M0 0 C2.92402125 1.97201433 4.73531168 3.88421752 6.6875 6.8125 C6.6875 7.4725 6.6875 8.1325 6.6875 8.8125 C4.7075 9.1425 2.7275 9.4725 0.6875 9.8125 C0.3575 8.8225 0.0275 7.8325 -0.3125 6.8125 C-4.27653017 4.59730667 -7.83728495 4.48100259 -12.3125 4.8125 C-15.3234362 6.8197908 -15.94266497 7.65134224 -17.3125 10.8125 C-18.81071059 7.44152617 -19.3125 5.60807881 -19.3125 1.8125 C-12.74535794 -1.54093425 -7.07254011 -2.53543891 0 0 Z " fill="#191919" transform="translate(579.3125,274.1875)"/>
<path d="M0 0 C3.41392136 1.84589934 5.14451095 3.70014963 6.75 7.3125 C4.0625 8.0625 4.0625 8.0625 0.75 8.3125 C-0.92083819 6.98439785 -2.58729713 5.65077304 -4.25 4.3125 C-7.75 3.64583333 -7.75 3.64583333 -11.25 4.3125 C-12.5184375 5.3334375 -12.5184375 5.3334375 -13.8125 6.375 C-16.25 8.3125 -16.25 8.3125 -19.5625 8.0625 C-20.449375 7.815 -21.33625 7.5675 -22.25 7.3125 C-20.23607451 2.78116766 -17.73755273 1.00036573 -13.359375 -0.95703125 C-8.45430038 -2.65564042 -4.62274551 -2.06673841 0 0 Z " fill="#191919" transform="translate(576.25,351.6875)"/>
<path d="M0 0 C3.5625 1.8125 3.5625 1.8125 6 4 C6.61875 4.515625 7.2375 5.03125 7.875 5.5625 C9 7 9 7 9 10 C6.3125 10.25 6.3125 10.25 3 10 C2.2575 9.34 1.515 8.68 0.75 8 C-3.3136661 5.04460647 -7.13229645 5.65973334 -12 6 C-12.33 5.34 -12.66 4.68 -13 4 C-14.65 4.33 -16.3 4.66 -18 5 C-12.43027784 -0.75537957 -7.8782047 -0.7620747 0 0 Z " fill="#0F0F0F" transform="translate(501,351)"/>
<path d="M0 0 C2.1875 -0.3125 2.1875 -0.3125 5 0 C5.680625 0.78375 6.36125 1.5675 7.0625 2.375 C11.4507727 6.29643518 16.28687578 6.38950666 22 7 C22 8.32 22 9.64 22 11 C19.93816367 11.08150744 17.87538651 11.1394194 15.8125 11.1875 C14.66394531 11.22230469 13.51539063 11.25710938 12.33203125 11.29296875 C7.43089282 10.8620363 4.97379229 9.05274842 1.6875 5.5 C0 3 0 3 0 0 Z " fill="#121212" transform="translate(555,301)"/>
<path d="M0 0 C3.70055346 1.73986238 5.52179894 2.71433904 7.84765625 6.203125 C7.18765625 6.863125 6.52765625 7.523125 5.84765625 8.203125 C5.51765625 7.543125 5.18765625 6.883125 4.84765625 6.203125 C3.85765625 6.863125 2.86765625 7.523125 1.84765625 8.203125 C1.31140625 7.708125 0.77515625 7.213125 0.22265625 6.703125 C-2.78985412 4.80048687 -4.64465275 4.90459811 -8.15234375 5.203125 C-9.14234375 5.533125 -10.13234375 5.863125 -11.15234375 6.203125 C-11.48234375 5.213125 -11.81234375 4.223125 -12.15234375 3.203125 C-13.14234375 2.873125 -14.13234375 2.543125 -15.15234375 2.203125 C-10.01488557 -0.8041676 -5.78295949 -2.14105941 0 0 Z " fill="#151515" transform="translate(388.15234375,350.796875)"/>
<path d="M0 0 C6.6 0 13.2 0 20 0 C20 1.65 20 3.3 20 5 C15.05 5 10.1 5 5 5 C5 4.34 5 3.68 5 3 C4.34 3 3.68 3 3 3 C3 2.34 3 1.68 3 1 C2.01 0.67 1.02 0.34 0 0 Z " fill="#060606" transform="translate(450,360)"/>
<path d="M0 0 C0 1.65 0 3.3 0 5 C-1.2375 5.391875 -2.475 5.78375 -3.75 6.1875 C-7.70538366 7.64622305 -9.67149343 9.41021904 -12 13 C-13.51953125 11.79296875 -13.51953125 11.79296875 -15 10 C-15.07421875 7.73828125 -15.07421875 7.73828125 -14.6875 5.3125 C-14.56761719 4.50425781 -14.44773437 3.69601562 -14.32421875 2.86328125 C-14.21722656 2.24839844 -14.11023438 1.63351562 -14 1 C-13.67 1 -13.34 1 -13 1 C-12.67 2.98 -12.34 4.96 -12 7 C-11.566875 6.21625 -11.13375 5.4325 -10.6875 4.625 C-7.70879766 -0.00853697 -5.2057861 -0.23136827 0 0 Z " fill="#101010" transform="translate(553,273)"/>
<path d="M0 0 C4.64073925 0.28125692 7.14028602 2.45124187 10.546875 5.33203125 C12.18304197 7.21010463 12.59909978 8.56822368 13 11 C11.68 11 10.36 11 9 11 C8.34 11.66 7.68 12.32 7 13 C6.690625 12.05125 6.38125 11.1025 6.0625 10.125 C3.73757505 6.60238644 3.22496633 6.46162802 -0.6875 5.625 C-2.12117128 5.39177118 -3.5581019 5.17532514 -5 5 C-3.625 3.5 -3.625 3.5 -2 2 C-1.34 2 -0.68 2 0 2 C0 1.34 0 0.68 0 0 Z " fill="#181818" transform="translate(514,273)"/>
<path d="M0 0 C0.66 0.66 1.32 1.32 2 2 C4.20250992 2.46006346 4.20250992 2.46006346 6.625 2.625 C7.44226563 2.69976562 8.25953125 2.77453125 9.1015625 2.8515625 C9.72804688 2.90054687 10.35453125 2.94953125 11 3 C11 4.65 11 6.3 11 8 C-0.0913263 8.78476365 -0.0913263 8.78476365 -3.75 5.625 C-5 3 -5 3 -5 1 C-4.34 1 -3.68 1 -3 1 C-3 1.66 -3 2.32 -3 3 C-2.34 3 -1.68 3 -1 3 C-0.67 2.01 -0.34 1.02 0 0 Z " fill="#272727" transform="translate(618,304)"/>
<path d="M0 0 C1.09570312 0.00902344 2.19140625 0.01804687 3.3203125 0.02734375 C4.16335938 0.03894531 5.00640625 0.05054688 5.875 0.0625 C5.545 1.7125 5.215 3.3625 4.875 5.0625 C1.20512779 6.28579074 -1.46467822 5.94271006 -5.3125 5.625 C-6.58480469 5.52316406 -7.85710938 5.42132813 -9.16796875 5.31640625 C-10.14378906 5.23261719 -11.11960937 5.14882813 -12.125 5.0625 C-12.125 4.7325 -12.125 4.4025 -12.125 4.0625 C-10.475 4.0625 -8.825 4.0625 -7.125 4.0625 C-7.455 3.0725 -7.785 2.0825 -8.125 1.0625 C-5.36047967 -0.31976016 -3.0788637 -0.03275387 0 0 Z " fill="#070707" transform="translate(630.125,273.9375)"/>
<path d="M0 0 C0.7734375 0.7115625 0.7734375 0.7115625 1.5625 1.4375 C4.66782675 3.42809407 7.36632504 3.65060818 11 4 C9.68 4.33 8.36 4.66 7 5 C7 5.66 7 6.32 7 7 C6.34 7 5.68 7 5 7 C5 7.66 5 8.32 5 9 C5.99 8.67 6.98 8.34 8 8 C10.6875 8.4375 10.6875 8.4375 13 9 C13 9.33 13 9.66 13 10 C1.97553517 10.57798165 1.97553517 10.57798165 -2 7 C-2 4 -2 4 0 2 C0 1.34 0 0.68 0 0 Z " fill="#1D1D1D" transform="translate(503,303)"/>
<path d="M0 0 C0 0.33 0 0.66 0 1 C-2.64 1.33 -5.28 1.66 -8 2 C-8.1546875 2.928125 -8.1546875 2.928125 -8.3125 3.875 C-9 6 -9 6 -12 8 C-13.19232613 10.05003955 -13.19232613 10.05003955 -14 12 C-15.49821059 8.62902617 -16 6.79557881 -16 3 C-10.4477112 0.1647887 -6.19887485 -0.37952295 0 0 Z " fill="#212121" transform="translate(576,273)"/>
<path d="M0 0 C2.31 0 4.62 0 7 0 C7 2.31 7 4.62 7 7 C4.69 7 2.38 7 0 7 C0 4.69 0 2.38 0 0 Z " fill="#292929" transform="translate(593,260)"/>
<path d="M0 0 C2.31 0 4.62 0 7 0 C7 2.31 7 4.62 7 7 C4.69 7 2.38 7 0 7 C0 4.69 0 2.38 0 0 Z " fill="#292929" transform="translate(449,260)"/>
<path d="M0 0 C-0.99 0.66 -1.98 1.32 -3 2 C-2.01 3.485 -2.01 3.485 -1 5 C-3.64 5.66 -6.28 6.32 -9 7 C-9.33 6.01 -9.66 5.02 -10 4 C-10.99 3.67 -11.98 3.34 -13 3 C-8.44573816 0.33409063 -5.26053037 -0.31563182 0 0 Z " fill="#222222" transform="translate(386,350)"/>
<path d="M0 0 C0.7425 0.0825 1.485 0.165 2.25 0.25 C1.89950425 3.49208567 1.68778819 4.86527704 -0.8125 7.0625 C-1.451875 7.454375 -2.09125 7.84625 -2.75 8.25 C-4.07 6.93 -5.39 5.61 -6.75 4.25 C-3.42692308 0.31153846 -3.42692308 0.31153846 0 0 Z " fill="#121212" transform="translate(581.75,378.75)"/>
<path d="M0 0 C2 0.6875 2 0.6875 4 2.6875 C7.08347826 2.85431109 7.08347826 2.85431109 10 2.6875 C10 3.6775 10 4.6675 10 5.6875 C6.04 5.6875 2.08 5.6875 -2 5.6875 C-2.33 5.0275 -2.66 4.3675 -3 3.6875 C-4.65 4.0175 -6.3 4.3475 -8 4.6875 C-3.00875657 -0.47011821 -3.00875657 -0.47011821 0 0 Z " fill="#222222" transform="translate(491,351.3125)"/>
<path d="M0 0 C3.63 0 7.26 0 11 0 C11 1.32 11 2.64 11 4 C7.37 4 3.74 4 0 4 C0 2.68 0 1.36 0 0 Z " fill="#040404" transform="translate(566,308)"/>
<path d="M0 0 C0.33 0 0.66 0 1 0 C1.02690844 2.62506802 1.04679404 5.24986173 1.0625 7.875 C1.07087891 8.62136719 1.07925781 9.36773437 1.08789062 10.13671875 C1.11328125 15.7734375 1.11328125 15.7734375 0 18 C-1.98 18 -3.96 18 -6 18 C-6 16.35 -6 14.7 -6 13 C-4.02 13 -2.04 13 0 13 C0 8.71 0 4.42 0 0 Z " fill="#191919" transform="translate(612,261)"/>
<path d="M0 0 C3.40218955 1.45808124 4.95297781 4.02020714 7.1875 6.9375 C3.4375 8.0625 3.4375 8.0625 1.1875 6.9375 C1.1875 5.9475 1.1875 4.9575 1.1875 3.9375 C0.5275 3.9375 -0.1325 3.9375 -0.8125 3.9375 C-1.1425 4.9275 -1.4725 5.9175 -1.8125 6.9375 C-2.4725 6.2775 -3.1325 5.6175 -3.8125 4.9375 C-3.8125 3.6175 -3.8125 2.2975 -3.8125 0.9375 C-1.8125 -0.0625 -1.8125 -0.0625 0 0 Z " fill="#232323" transform="translate(483.8125,378.0625)"/>
<path d="M0 0 C0.99 0.66 1.98 1.32 3 2 C2.75 4.875 2.75 4.875 2 8 C-0.0625 9.375 -0.0625 9.375 -2 10 C-2 9.34 -2 8.68 -2 8 C-2.66 7.67 -3.32 7.34 -4 7 C-3.39816251 4.97954558 -2.72693904 2.97888961 -2 1 C-1.34 0.67 -0.68 0.34 0 0 Z " fill="#090909" transform="translate(556,358)"/>
<path d="M0 0 C2.97 0.495 2.97 0.495 6 1 C4.25 5.875 4.25 5.875 2 7 C1.34 6.67 0.68 6.34 0 6 C-0.33 6.66 -0.66 7.32 -1 8 C-1 7.34 -1 6.68 -1 6 C-1.99 5.67 -2.98 5.34 -4 5 C-2.68 3.35 -1.36 1.7 0 0 Z " fill="#1B1B1B" transform="translate(522,300)"/>
<path d="M0 0 C1.37478516 0.01740234 1.37478516 0.01740234 2.77734375 0.03515625 C3.69644531 0.04417969 4.61554687 0.05320312 5.5625 0.0625 C6.27277344 0.07410156 6.98304688 0.08570313 7.71484375 0.09765625 C7.05484375 1.41765625 6.39484375 2.73765625 5.71484375 4.09765625 C2.74484375 4.09765625 -0.22515625 4.09765625 -3.28515625 4.09765625 C-3.28515625 0.14039129 -3.28515625 0.14039129 0 0 Z " fill="#050505" transform="translate(570.28515625,273.90234375)"/>
<path d="M0 0 C1.65 0.99 3.3 1.98 5 3 C4.67 4.32 4.34 5.64 4 7 C1.6568787 6.74438677 -0.67843403 6.40729228 -3 6 C-3.33 5.34 -3.66 4.68 -4 4 C-2.68 2.68 -1.36 1.36 0 0 Z " fill="#0C0C0C" transform="translate(373,302)"/>
<path d="M0 0 C0.66 1.65 1.32 3.3 2 5 C1.01 5.495 1.01 5.495 0 6 C-0.65213292 8.02463255 -0.65213292 8.02463255 -1 10 C-5 4.375 -5 4.375 -5 1 C-3 0 -3 0 0 0 Z " fill="#1C1C1C" transform="translate(522,378)"/>
<path d="M0 0 C5.75 0.75 5.75 0.75 8 3 C7.360625 3.28875 6.72125 3.5775 6.0625 3.875 C3.84793921 4.82823451 3.84793921 4.82823451 3 7 C0.69 6.67 -1.62 6.34 -4 6 C-3.525625 5.566875 -3.05125 5.13375 -2.5625 4.6875 C-0.76313043 2.97690387 -0.76313043 2.97690387 0 0 Z " fill="#1A1A1A" transform="translate(500,368)"/>
<path d="M0 0 C1.32 0 2.64 0 4 0 C3.34 1.98 2.68 3.96 2 6 C-3.53846154 5.38461538 -3.53846154 5.38461538 -5.875 3.4375 C-6.24625 2.963125 -6.6175 2.48875 -7 2 C-5.02 2 -3.04 2 -1 2 C-0.67 1.34 -0.34 0.68 0 0 Z " fill="#202020" transform="translate(378,306)"/>
<path d="M0 0 C1.65 0.33 3.3 0.66 5 1 C5.33 2.65 5.66 4.3 6 6 C4.35 6 2.7 6 1 6 C-0.0625 4.125 -0.0625 4.125 -1 2 C-0.67 1.34 -0.34 0.68 0 0 Z " fill="#0F0F0F" transform="translate(540,355)"/>
<path d="M0 0 C1.98 0 3.96 0 6 0 C6.66 1.32 7.32 2.64 8 4 C6.02 4.66 4.04 5.32 2 6 C1.34 4.02 0.68 2.04 0 0 Z " fill="#242424" transform="translate(589,351)"/>
<path d="M0 0 C2.64 0 5.28 0 8 0 C8.33 1.32 8.66 2.64 9 4 C6.1875 4.25 6.1875 4.25 3 4 C1.125 2 1.125 2 0 0 Z " fill="#292929" transform="translate(501,357)"/>
<path d="M0 0 C2.31 0 4.62 0 7 0 C6.67 1.32 6.34 2.64 6 4 C4.02 4 2.04 4 0 4 C-0.33 3.34 -0.66 2.68 -1 2 C-0.67 1.34 -0.34 0.68 0 0 Z " fill="#0A0A0A" transform="translate(419,338)"/>
<path d="M0 0 C1.98 0 3.96 0 6 0 C6 1.32 6 2.64 6 4 C3.69 4 1.38 4 -1 4 C-0.67 2.68 -0.34 1.36 0 0 Z " fill="#020202" transform="translate(622,308)"/>
<path d="M0 0 C0 1.32 0 2.64 0 4 C-5.75 3.25 -5.75 3.25 -8 1 C-5.29120665 -0.35439668 -2.99066732 -0.06501451 0 0 Z " fill="#040404" transform="translate(499,351)"/>
<path d="M0 0 C2.31 0 4.62 0 7 0 C7 1.66666667 7 3.33333333 7 5 C4.11424181 4.60196439 3.17810487 4.20990931 1.25 1.9375 C0.8375 1.298125 0.425 0.65875 0 0 Z " fill="#060606" transform="translate(382,351)"/>
<path d="M0 0 C-0.33 1.65 -0.66 3.3 -1 5 C-2.98 5 -4.96 5 -7 5 C-6 2 -6 2 -4.0625 0.8125 C-2 0 -2 0 0 0 Z " fill="#1E1E1E" transform="translate(594,385)"/>
<path d="M0 0 C1.37562854 1.28965176 2.70766393 2.62689293 4 4 C4 4.66 4 5.32 4 6 C1.69 6 -0.62 6 -3 6 C-2.01 4.02 -1.02 2.04 0 0 Z " fill="#1F1F1F" transform="translate(615,384)"/>
<path d="M0 0 C2.02045442 0.60183749 4.02111039 1.27306096 6 2 C6.33 2.66 6.66 3.32 7 4 C6.01 4 5.02 4 4 4 C3.67 4.99 3.34 5.98 3 7 C2.01 6.34 1.02 5.68 0 5 C0 3.33333333 0 1.66666667 0 0 Z " fill="#1F1F1F" transform="translate(536,351)"/>
<path d="M0 0 C0.99 0.33 1.98 0.66 3 1 C3.6875 3.0625 3.6875 3.0625 4 5 C2.68 5 1.36 5 0 5 C-0.66 5.66 -1.32 6.32 -2 7 C-2.33 5.35 -2.66 3.7 -3 2 C-2.01 2 -1.02 2 0 2 C0 1.34 0 0.68 0 0 Z " fill="#232323" transform="translate(523,279)"/>
<path d="M0 0 C0.66 0.33 1.32 0.66 2 1 C1.67 2.65 1.34 4.3 1 6 C0.01 6 -0.98 6 -2 6 C-2.33 4.68 -2.66 3.36 -3 2 C-2.01 1.34 -1.02 0.68 0 0 Z " fill="#0A0A0A" transform="translate(595,354)"/>
<path d="M0 0 C0.99 0.33 1.98 0.66 3 1 C2.01 2.98 1.02 4.96 0 7 C-0.99 7 -1.98 7 -3 7 C-2.25 2.25 -2.25 2.25 0 0 Z " fill="#0B0B0B" transform="translate(611,352)"/>
<path d="M0 0 C0.66 0.33 1.32 0.66 2 1 C0.625 2.5 0.625 2.5 -1 4 C-1.66 4 -2.32 4 -3 4 C-3 4.99 -3 5.98 -3 7 C-2.01 7.33 -1.02 7.66 0 8 C-0.66 8.66 -1.32 9.32 -2 10 C-4 8 -4 8 -4.375 5.5625 C-4 3 -4 3 -2 1.1875 C-1.34 0.795625 -0.68 0.40375 0 0 Z " fill="#D6D6D6" transform="translate(567,278)"/>
<path d="M0 0 C0.66 0.33 1.32 0.66 2 1 C1.34 2.65 0.68 4.3 0 6 C-0.99 6 -1.98 6 -3 6 C-2.42655063 3.13275314 -2.1385485 2.1385485 0 0 Z " fill="#090909" transform="translate(581,305)"/>
<path d="M0 0 C0.66 0.33 1.32 0.66 2 1 C1 4 1 4 -1 5 C-3.6723621 5.13415472 -6.32250488 5.04318541 -9 5 C-9 4.67 -9 4.34 -9 4 C-7.88625 3.896875 -6.7725 3.79375 -5.625 3.6875 C-4.42875 3.460625 -3.2325 3.23375 -2 3 C-1.34 2.01 -0.68 1.02 0 0 Z " fill="#CACACA" transform="translate(577,303)"/>
</svg>
