<?xml version="1.0" encoding="UTF-8"?>
<svg version="1.1" xmlns="http://www.w3.org/2000/svg" width="200" height="200">
<path d="M0 0 C66 0 132 0 200 0 C200 66 200 132 200 200 C134 200 68 200 0 200 C0 134 0 68 0 0 Z " fill="#FCFDFC" transform="translate(0,0)"/>
<path d="M0 0 C7.02494644 -0.12785281 14.04958771 -0.21478831 21.07543945 -0.2746582 C23.46031913 -0.29964342 25.84512349 -0.33364344 28.22973633 -0.37719727 C53.59191682 -0.82848162 53.59191682 -0.82848162 64 5 C65.7325 5.928125 65.7325 5.928125 67.5 6.875 C71.48657733 10.26359073 74.34155703 14.02467109 76 19 C76.33 13.06 76.66 7.12 77 1 C85.96890951 2.12111369 85.96890951 2.12111369 89.6875 4.4375 C91.97238631 5.83683622 93.89763975 6.96786546 96.4624176 7.77304077 C100.53645896 9.742901 101.34844986 12.85371421 103.02487183 16.88800049 C104.59513196 21.89928916 104.65057285 26.6205911 104.56640625 31.8359375 C104.57204086 32.91831696 104.57767548 34.00069641 104.58348083 35.11587524 C104.59979996 38.53603725 104.58447645 41.95488494 104.5625 45.375 C104.54588763 48.81640876 104.53680801 52.25697286 104.55223083 55.69839478 C104.56149125 57.82972486 104.55241236 59.96123504 104.52259827 62.09237671 C104.53869235 66.43107861 104.6146685 69.26843106 106.66040039 73.15234375 C109.59469471 75.46964933 111.15224414 75.6137655 114.8671875 75.6015625 C116.56681641 75.62476562 116.56681641 75.62476562 118.30078125 75.6484375 C119.48027344 75.64070313 120.65976563 75.63296875 121.875 75.625 C137.32594937 75.625 137.32594937 75.625 142.6796875 80.54296875 C143.07414063 81.08566406 143.46859375 81.62835938 143.875 82.1875 C144.28492188 82.71730469 144.69484375 83.24710937 145.1171875 83.79296875 C146.46931391 87.17328477 146.05183521 90.3717647 146 94 C139.47140943 94.10194511 132.94302636 94.17169296 126.41381836 94.21972656 C124.19564137 94.239764 121.97751668 94.26700173 119.75952148 94.30175781 C116.55960128 94.35062253 113.36038326 94.37304812 110.16015625 94.390625 C109.17854019 94.41127014 108.19692413 94.43191528 107.18556213 94.45318604 C97.68293289 94.4562393 90.67940788 91.36403437 83.7265625 84.9375 C78.49518659 79.06699672 76.87111461 72.38713781 76.68359375 64.70703125 C76.66281265 64.00100266 76.64203156 63.29497406 76.62062073 62.56755066 C76.55532509 60.31596449 76.49633353 58.06426338 76.4375 55.8125 C76.39429575 54.2844934 76.35068084 52.75649836 76.30664062 51.22851562 C76.19966426 47.48579438 76.09834078 43.7429577 76 40 C75.69562012 40.52891846 75.39124023 41.05783691 75.07763672 41.6027832 C71.91853964 46.90248058 68.60607121 50.29279128 63.6953125 54.04296875 C61.74777174 55.85537387 61.74777174 55.85537387 62.01953125 58.27734375 C63.28146069 61.78158606 64.85787928 65.07109125 66.5625 68.375 C66.913125 69.06674316 67.26375 69.75848633 67.625 70.47119141 C70.50952087 76.13116541 73.49757307 81.73698892 76.56079102 87.30224609 C79 91.78548153 79 91.78548153 79 94 C75.45861382 94.11681812 71.9177276 94.187455 68.375 94.25 C67.37597656 94.28351563 66.37695312 94.31703125 65.34765625 94.3515625 C60.94465914 94.40988034 57.70368543 94.29705752 53.61328125 92.5703125 C50.01025829 89.02653207 48.01625208 85.13564387 45.8125 80.625 C45.38775391 79.78710938 44.96300781 78.94921875 44.52539062 78.0859375 C43.70487337 76.46276806 42.89217412 74.83561645 42.08837891 73.20410156 C41.14778813 71.29928919 40.17630631 69.40978876 39.19921875 67.5234375 C38 65 38 65 38 63 C33.71 63 29.42 63 25 63 C25.05220703 65.06121094 25.05220703 65.06121094 25.10546875 67.1640625 C25.13361772 68.98436273 25.16091669 70.80467624 25.1875 72.625 C25.21263672 73.52863281 25.23777344 74.43226562 25.26367188 75.36328125 C25.32197219 80.68804347 25.02337698 84.41107389 22 89 C17.00508822 93.6202934 13.49696351 94.12382535 6.8125 94.0625 C4.90404297 94.04896484 4.90404297 94.04896484 2.95703125 94.03515625 C1.98121094 94.02355469 1.00539063 94.01195312 0 94 C-0.07448116 88.71642089 -0.12875795 83.43315137 -0.16479492 78.14916992 C-0.17982716 76.35386833 -0.20025857 74.55860312 -0.22631836 72.76342773 C-0.26294786 70.17422474 -0.2797821 67.58550972 -0.29296875 64.99609375 C-0.30845261 64.20101913 -0.32393646 63.40594452 -0.33988953 62.58677673 C-0.34146303 57.30739586 0.50956371 53.68127958 3 49 C7.78683106 44.56342487 10.49885949 43.87718548 16.94921875 43.7890625 C18.36915175 43.76097371 19.78907346 43.73230913 21.20898438 43.703125 C23.44262124 43.66202863 25.67605187 43.62513582 27.90991211 43.59863281 C30.06928996 43.57080392 32.22771537 43.52491647 34.38671875 43.4765625 C35.67795654 43.45674316 36.96919434 43.43692383 38.29956055 43.41650391 C42.53641108 42.93962411 45.21958739 41.92608879 49 40 C51.79183974 36.34199392 51.46374591 32.07466807 51.38671875 27.63671875 C51.16638899 24.72545164 51.16638899 24.72545164 48.75 21.875 C44.1619284 18.74676937 40.3245494 18.8723194 34.8203125 18.82421875 C33.4023289 18.8010211 31.98436009 18.77690378 30.56640625 18.75195312 C28.3457647 18.71688004 26.12566978 18.68750405 23.90478516 18.67407227 C21.7509662 18.65852036 19.5987131 18.6182779 17.4453125 18.57421875 C16.16156738 18.55963623 14.87782227 18.54505371 13.55517578 18.5300293 C8.17622888 17.72810005 5.12343667 15.30082141 1.625 11.25 C-0.44663098 7.10673803 -0.12272605 4.5880663 0 0 Z " fill="#4C9961" transform="translate(27,40)"/>
<path d="M0 0 C1.83033752 0.19857788 1.83033752 0.19857788 4 1 C8.93693182 8.03829782 9.70103714 15.49359374 9.56640625 23.8359375 C9.57204086 24.91831696 9.57767548 26.00069641 9.58348083 27.11587524 C9.59979996 30.53603725 9.58447645 33.95488494 9.5625 37.375 C9.54588763 40.81640876 9.53680801 44.25697286 9.55223083 47.69839478 C9.56149125 49.82972486 9.55241236 51.96123504 9.52259827 54.09237671 C9.53869235 58.43107861 9.6146685 61.26843106 11.66040039 65.15234375 C14.59469471 67.46964933 16.15224414 67.6137655 19.8671875 67.6015625 C21.56681641 67.62476562 21.56681641 67.62476562 23.30078125 67.6484375 C24.48027344 67.64070313 25.65976563 67.63296875 26.875 67.625 C42.32594937 67.625 42.32594937 67.625 47.6796875 72.54296875 C48.27136719 73.35701172 48.27136719 73.35701172 48.875 74.1875 C49.28492188 74.71730469 49.69484375 75.24710937 50.1171875 75.79296875 C51.4826042 79.20651049 51.12915938 82.3417506 51 86 C47.01659695 86.09973852 43.03368892 86.17187198 39.04931641 86.21972656 C37.03652373 86.24946045 35.02407866 86.30031729 33.01171875 86.3515625 C25.53735011 86.42668178 20.23913548 86.29690461 14 82 C12.125 79.96484375 12.125 79.96484375 11 77.9375 C10.608125 77.26589844 10.21625 76.59429687 9.8125 75.90234375 C9 74 9 74 9 71 C8.34 71 7.68 71 7 71 C6.63536268 69.25215171 6.2836922 67.50159498 5.9375 65.75 C5.74027344 64.77546875 5.54304688 63.8009375 5.33984375 62.796875 C5.00144719 60.01191023 5.32773639 58.65489483 6 56 C6.09244181 54.56677752 6.13783478 53.13002905 6.14526367 51.69384766 C6.15164352 50.8526236 6.15802338 50.01139954 6.16459656 49.14468384 C6.16570938 48.2435788 6.1668222 47.34247375 6.16796875 46.4140625 C6.17129715 45.4795224 6.17462555 44.5449823 6.17805481 43.5821228 C6.18311278 41.60683687 6.18546348 39.63154241 6.18530273 37.65625 C6.18748689 34.64308502 6.20564822 31.63028763 6.22460938 28.6171875 C6.22754404 26.69531375 6.22952835 24.77343826 6.23046875 22.8515625 C6.23765427 21.95450592 6.24483978 21.05744934 6.25224304 20.13320923 C6.22907201 13.75021644 5.20029366 8.6671561 1.875 3.125 C1.25625 2.09375 0.6375 1.0625 0 0 Z " fill="#50A361" transform="translate(122,48)"/>
<path d="M0 0 C2.16501573 3.24752359 3.84753604 6.63046728 5.5625 10.125 C8.96979137 17.02428558 12.52779546 23.83119121 16.20532227 30.59033203 C19 35.78528976 19 35.78528976 19 38 C15.45861382 38.11681812 11.9177276 38.187455 8.375 38.25 C7.37597656 38.28351563 6.37695312 38.31703125 5.34765625 38.3515625 C0.94597608 38.4098629 -2.29433544 38.29823699 -6.3828125 36.5703125 C-9.99389098 33.02391005 -12.02312867 29.13372714 -14.25 24.625 C-14.683125 23.78710938 -15.11625 22.94921875 -15.5625 22.0859375 C-17.74277152 17.80614526 -19.64402861 13.62536907 -21 9 C-20.20335938 8.87882812 -19.40671875 8.75765625 -18.5859375 8.6328125 C-10.65498622 7.38116525 -10.65498622 7.38116525 -3 5 C-2.67 5.66 -2.34 6.32 -2 7 C-1.01 7 -0.02 7 1 7 C0.67 4.69 0.34 2.38 0 0 Z " fill="#5B9651" transform="translate(87,96)"/>
<path d="M0 0 C0.80091064 0.01071533 1.60182129 0.02143066 2.42700195 0.0324707 C3.0324585 0.04624756 3.63791504 0.06002441 4.26171875 0.07421875 C4.3707338 2.90861012 4.44949779 5.73872078 4.51171875 8.57421875 C4.56199219 9.76144531 4.56199219 9.76144531 4.61328125 10.97265625 C4.70866203 16.7908839 3.65389343 21.2666348 0.26171875 26.07421875 C-4.93043632 30.7111272 -10.01287828 30.44273398 -16.73828125 30.07421875 C-16.73828125 23.80421875 -16.73828125 17.53421875 -16.73828125 11.07421875 C-16.07828125 10.74421875 -15.41828125 10.41421875 -14.73828125 10.07421875 C-15.06828125 9.41421875 -15.39828125 8.75421875 -15.73828125 8.07421875 C-11.72456707 2.13392177 -7.11099943 -0.12383959 0 0 Z " fill="#559152" transform="translate(44.73828125,102.92578125)"/>
<path d="M0 0 C7.06164086 -0.10207342 14.12308892 -0.17174631 21.18530273 -0.21972656 C23.58381256 -0.23974509 25.98227418 -0.26696833 28.38061523 -0.30175781 C31.84370882 -0.35070613 35.3061528 -0.37306731 38.76953125 -0.390625 C39.82831985 -0.41127014 40.88710846 -0.43191528 41.97798157 -0.45318604 C49.36412843 -0.45537332 55.23685155 1.05259424 62 4 C59 5 59 5 56 4 C54.29785889 3.88465811 52.59178591 3.82358959 50.88598633 3.79467773 C49.32470757 3.7647599 49.32470757 3.7647599 47.73188782 3.73423767 C46.60993515 3.71752518 45.48798248 3.70081268 44.33203125 3.68359375 C43.18208176 3.66281265 42.03213226 3.64203156 40.84733582 3.62062073 C37.16911875 3.55516658 33.49082952 3.49625926 29.8125 3.4375 C27.32095604 3.39431087 24.82941941 3.35069645 22.33789062 3.30664062 C16.22533462 3.19948935 10.11270594 3.09821003 4 3 C4.33 6.63 4.66 10.26 5 14 C4.360625 13.195625 3.72125 12.39125 3.0625 11.5625 C1.59396498 9.7249496 1.59396498 9.7249496 0 8 C-0.14115161 5.32941149 -0.04247107 2.67567762 0 0 Z " fill="#83BF92" transform="translate(27,40)"/>
<path d="M0 0 C0.33 0 0.66 0 1 0 C1 12.21 1 24.42 1 37 C9.88841803 36.58330424 9.88841803 36.58330424 17 33 C22.21783653 25.80784695 21.79190791 17.57339396 22 9 C22.66 9 23.32 9 24 9 C24.33 8.34 24.66 7.68 25 7 C25.08774066 10.20815845 25.14063706 13.41600462 25.1875 16.625 C25.21263672 17.52863281 25.23777344 18.43226562 25.26367188 19.36328125 C25.32197219 24.68804347 25.02337698 28.41107389 22 33 C14.74104242 39.71453576 11.28995383 38 0 38 C0 25.46 0 12.92 0 0 Z " fill="#9CC28F" transform="translate(27,96)"/>
<path d="M0 0 C1.83003235 0.19755554 1.83003235 0.19755554 4 1 C8.88059445 7.97556252 9.7031215 15.30603412 9.48828125 23.57421875 C9.47766914 25.14898735 9.47766914 25.14898735 9.46684265 26.75556946 C9.43913787 30.06697742 9.37644466 33.37661419 9.3125 36.6875 C9.28738624 38.94984515 9.26457851 41.21221715 9.24414062 43.47460938 C9.18939043 48.98366424 9.10600918 54.49170554 9 60 C6.59271728 57.59271728 6.74375109 57.02547859 6.71289062 53.73730469 C6.69947632 52.85588806 6.68606201 51.97447144 6.67224121 51.06634521 C6.66696411 50.11117004 6.66168701 49.15599487 6.65625 48.171875 C6.6416272 47.19011292 6.62700439 46.20835083 6.61193848 45.19683838 C6.56532322 42.04793388 6.53120766 38.89909267 6.5 35.75 C6.4587907 31.61956043 6.40502796 27.48956007 6.34375 23.359375 C6.3384729 22.41229675 6.3331958 21.46521851 6.32775879 20.48944092 C6.23016913 13.98536878 5.26713191 8.77855319 1.875 3.125 C1.25625 2.09375 0.6375 1.0625 0 0 Z " fill="#87D99A" transform="translate(122,48)"/>
<path d="M0 0 C0 0.99 0 1.98 0 3 C-4.64053345 5.69507904 -8.03222046 6.37644748 -13.375 6.40625 C-14.06255371 6.41708618 -14.75010742 6.42792236 -15.45849609 6.43908691 C-18.37395858 6.48458931 -21.2893248 6.49638053 -24.20507812 6.51123047 C-26.34536552 6.52701007 -28.48493199 6.56002149 -30.625 6.59375 C-32.53152344 6.60438477 -32.53152344 6.60438477 -34.4765625 6.61523438 C-38.32891592 7.0359182 -40.73229862 7.94086759 -44 10 C-45.90206849 13.05039221 -45.90206849 13.05039221 -47 16 C-47.8125 14.375 -47.8125 14.375 -48 12 C-45.34121922 8.20174174 -43.34803559 5.72666488 -39 4 C-35.71948242 3.72875977 -35.71948242 3.72875977 -31.85546875 3.69140625 C-30.44205331 3.66623818 -29.02864195 3.64084027 -27.61523438 3.61523438 C-25.40357601 3.58657516 -23.19198862 3.56253823 -20.98022461 3.54370117 C-18.83409773 3.52188265 -16.68880246 3.48242897 -14.54296875 3.44140625 C-12.6252063 3.42122437 -12.6252063 3.42122437 -10.66870117 3.40063477 C-6.48946592 2.94424793 -3.75524529 1.82570611 0 0 Z " fill="#73C795" transform="translate(76,80)"/>
<path d="M0 0 C2.16501573 3.24752359 3.84753604 6.63046728 5.5625 10.125 C8.96979137 17.02428558 12.52779546 23.83119121 16.20532227 30.59033203 C19 35.78528976 19 35.78528976 19 38 C11.74 38 4.48 38 -3 38 C-3 37.67 -3 37.34 -3 37 C3.27 37 9.54 37 16 37 C14.1313008 32.63970186 12.36061999 28.64959942 10.1171875 24.53125 C9.58996094 23.54769531 9.06273438 22.56414062 8.51953125 21.55078125 C7.42141323 19.51365494 6.3172174 17.47979342 5.20703125 15.44921875 C2.4231041 10.23021036 0.28411946 5.94979569 0 0 Z " fill="#89BE8D" transform="translate(87,96)"/>
<path d="M0 0 C0.33 0 0.66 0 1 0 C1.2475 1.010625 1.495 2.02125 1.75 3.0625 C2.55731742 5.96651949 3.41005503 7.65857323 5.0625 10.3125 C7.68864283 14.58852439 7.80212316 19.08276055 8 24 C4.7457985 21.16569547 3.4793247 19.31392226 3 15 C2.34 15 1.68 15 1 15 C0.63536268 13.25215171 0.2836922 11.50159498 -0.0625 9.75 C-0.25972656 8.77546875 -0.45695312 7.8009375 -0.66015625 6.796875 C-0.98397535 4.131881 -0.85503199 2.51128277 0 0 Z " fill="#44AE54" transform="translate(128,104)"/>
<path d="M0 0 C2 3 2 3 3.04296875 4.9375 C5.97587455 10.22273639 8.22292045 12.18758289 14 14 C14 14.33 14 14.66 14 15 C7.07 14.505 7.07 14.505 0 14 C0.33 12.35 0.66 10.7 1 9 C0.67392001 6.80146982 0.67392001 6.80146982 0 4.75 C-0.33 3.5125 -0.66 2.275 -1 1 C-0.67 0.67 -0.34 0.34 0 0 Z " fill="#3D9458" transform="translate(130,119)"/>
<path d="M0 0 C-0.33 0.99 -0.66 1.98 -1 3 C-1.96099609 3.14695312 -1.96099609 3.14695312 -2.94140625 3.296875 C-7.36687217 4.06193319 -11.13674462 4.82707547 -15 7.1875 C-16.485 8.0846875 -16.485 8.0846875 -18 9 C-18.66 8.67 -19.32 8.34 -20 8 C-14.90132 0.45395361 -8.51862803 -0.52154865 0 0 Z " fill="#366E47" transform="translate(49,103)"/>
<path d="M0 0 C1.32 0 2.64 0 4 0 C3.67 0.66 3.34 1.32 3 2 C3.33 2.33 3.66 2.66 4 3 C4.33 2.01 4.66 1.02 5 0 C5.99 0.33 6.98 0.66 8 1 C10.14255793 0.61067144 10.14255793 0.61067144 12 0 C12 1.98 12 3.96 12 6 C9.6875 7.125 9.6875 7.125 7 8 C6.01 7.34 5.02 6.68 4 6 C1.88719655 5.36707617 1.88719655 5.36707617 0 5 C0 3.33333333 0 1.66666667 0 0 Z " fill="#8A8A8A" transform="translate(89,156)"/>
<path d="M0 0 C0.66 0.33 1.32 0.66 2 1 C4.9143607 9.90499104 4.64489725 18.07347178 2 27 C1.67 27 1.34 27 1 27 C1.08378906 26.11957031 1.16757813 25.23914063 1.25390625 24.33203125 C1.35574219 23.17058594 1.45757812 22.00914063 1.5625 20.8125 C1.66691406 19.66394531 1.77132812 18.51539062 1.87890625 17.33203125 C1.98947738 14.28954176 1.88656351 11.90389365 1 9 C0.34 8.67 -0.32 8.34 -1 8 C-1.75 5.0625 -1.75 5.0625 -2 2 C-1.34 1.34 -0.68 0.68 0 0 Z " fill="#59A770" transform="translate(100,55)"/>
<path d="M0 0 C0 0.66 0 1.32 0 2 C-1.24735567 2.6509259 -2.49801832 3.29551669 -3.75 3.9375 C-4.44609375 4.29714844 -5.1421875 4.65679687 -5.859375 5.02734375 C-9.56004931 6.70885452 -12.70053513 7.12205095 -16.75 7.0625 C-17.54921875 7.05347656 -18.3484375 7.04445313 -19.171875 7.03515625 C-19.77515625 7.02355469 -20.3784375 7.01195313 -21 7 C-21 6.34 -21 5.68 -21 5 C-19.87980469 4.72285156 -18.75960937 4.44570312 -17.60546875 4.16015625 C-16.13279698 3.79433333 -14.66014158 3.42844447 -13.1875 3.0625 C-12.08051758 2.78889648 -12.08051758 2.78889648 -10.95117188 2.50976562 C-0.86647727 0 -0.86647727 0 0 0 Z " fill="#346D46" transform="translate(86,98)"/>
<path d="M0 0 C3.8063457 0.67170806 7.35206816 1.72746564 11 3 C10.67 4.32 10.34 5.64 10 7 C8.68 6.34 7.36 5.68 6 5 C5.01 5.66 4.02 6.32 3 7 C2.01 7 1.02 7 0 7 C0 4.69 0 2.38 0 0 Z " fill="#888888" transform="translate(111,156)"/>
<path d="M0 0 C0.66 0 1.32 0 2 0 C1.38933517 10.00450892 0.73410601 20.00366283 0 30 C-0.33 30 -0.66 30 -1 30 C-1.02465746 25.8882744 -1.04283959 21.77657722 -1.05493164 17.66479492 C-1.0599708 16.26504772 -1.06680216 14.8653058 -1.07543945 13.46557617 C-1.0875232 11.45754223 -1.09269807 9.44947043 -1.09765625 7.44140625 C-1.10289307 6.23170166 -1.10812988 5.02199707 -1.11352539 3.77563477 C-1 1 -1 1 0 0 Z " fill="#528B63" transform="translate(106,75)"/>
<path d="M0 0 C0.33 0 0.66 0 1 0 C1.05790353 3.29159316 1.09356261 6.58305603 1.125 9.875 C1.15013672 11.28072266 1.15013672 11.28072266 1.17578125 12.71484375 C1.18222656 13.61074219 1.18867187 14.50664063 1.1953125 15.4296875 C1.20578613 16.25710449 1.21625977 17.08452148 1.22705078 17.93701172 C1 20 1 20 -1 22 C-1.33 15.4 -1.66 8.8 -2 2 C-1.34 2 -0.68 2 0 2 C0 1.34 0 0.68 0 0 Z " fill="#9AC9A0" transform="translate(51,103)"/>
<path d="M0 0 C2.74792483 3.40219265 6 7.48464588 6 12 C-1.26 12 -8.52 12 -16 12 C-16 11.67 -16 11.34 -16 11 C-9.73 11 -3.46 11 3 11 C2.01 8.69 1.02 6.38 0 4 C0 2.68 0 1.36 0 0 Z " fill="#A4CD8B" transform="translate(100,122)"/>
<path d="M0 0 C0.66 0 1.32 0 2 0 C2 0.66 2 1.32 2 2 C2.66 2.33 3.32 2.66 4 3 C3.34 3 2.68 3 2 3 C2 3.99 2 4.98 2 6 C2.66 6.33 3.32 6.66 4 7 C2.824375 6.9690625 2.824375 6.9690625 1.625 6.9375 C-0.98114961 6.81315937 -0.98114961 6.81315937 -3 8 C-3.99 7.34 -4.98 6.68 -6 6 C-5.67 4.68 -5.34 3.36 -5 2 C-3.68 2.66 -2.36 3.32 -1 4 C-0.67 2.68 -0.34 1.36 0 0 Z " fill="#A8A8A8" transform="translate(76,142)"/>
<path d="M0 0 C6.75 -0.125 6.75 -0.125 9 1 C12.601101 2.06699289 16.28484668 2.49988321 20 3 C20 3.33 20 3.66 20 4 C12.56621057 4.33452052 6.80122845 4.13902852 0 1 C0 0.67 0 0.34 0 0 Z " fill="#61A076" transform="translate(118,130)"/>
<path d="M0 0 C0.98484375 0.01804687 1.9696875 0.03609375 2.984375 0.0546875 C4.10585938 0.08949219 4.10585938 0.08949219 5.25 0.125 C5.25 0.455 5.25 0.785 5.25 1.125 C4.4146875 1.14626953 4.4146875 1.14626953 3.5625 1.16796875 C-2.54369398 1.54960587 -7.10723516 3.02710731 -11.75 7.125 C-13.30761769 9.74959397 -13.30761769 9.74959397 -13.75 12.125 C-14.5625 10.5 -14.5625 10.5 -14.75 8.125 C-10.57034333 2.1540619 -7.47806165 -0.17804909 0 0 Z " fill="#7DBC94" transform="translate(42.75,83.875)"/>
<path d="M0 0 C0.33 0 0.66 0 1 0 C1 4.29 1 8.58 1 13 C5.455 12.505 5.455 12.505 10 12 C10 11.34 10 10.68 10 10 C11.32 10.33 12.64 10.66 14 11 C10.85408067 13.80045623 8.932936 14.35261589 4.75 14.1875 C3.1825 14.125625 1.615 14.06375 0 14 C0 9.38 0 4.76 0 0 Z " fill="#689E54" transform="translate(28,119)"/>
<path d="M0 0 C-1.65 1.98 -3.3 3.96 -5 6 C-6.9375 5.25 -6.9375 5.25 -9 4 C-9.75 1.875 -9.75 1.875 -10 0 C-2.25 -1.125 -2.25 -1.125 0 0 Z " fill="#51855A" transform="translate(76,105)"/>
<path d="M0 0 C3.37483413 -0.08767555 6.74937215 -0.14061628 10.125 -0.1875 C11.55199219 -0.22520508 11.55199219 -0.22520508 13.0078125 -0.26367188 C18.46921074 -0.32056144 22.2531332 -0.04470749 27 3 C25.1875 3.625 25.1875 3.625 23 4 C22.01 3.34 21.02 2.68 20 2 C17.77868577 1.6349209 17.77868577 1.6349209 15.33203125 1.5859375 C14.43935547 1.54726562 13.54667969 1.50859375 12.62695312 1.46875 C11.69818359 1.4378125 10.76941406 1.406875 9.8125 1.375 C8.87212891 1.33632812 7.93175781 1.29765625 6.96289062 1.2578125 C4.6421229 1.16356813 2.32136252 1.07795975 0 1 C0 0.67 0 0.34 0 0 Z " fill="#78AE78" transform="translate(141,116)"/>
<path d="M0 0 C0.66 0 1.32 0 2 0 C2.33 0.66 2.66 1.32 3 2 C4.32 2 5.64 2 7 2 C7 3.32 7 4.64 7 6 C4.69 6 2.38 6 0 6 C0 4.02 0 2.04 0 0 Z " fill="#878787" transform="translate(134,156)"/>
<path d="M0 0 C0.556875 0.7425 1.11375 1.485 1.6875 2.25 C3.93027178 4.91707995 6.22074975 6.91556232 9 9 C7.02 9.33 5.04 9.66 3 10 C-0.22265625 4.82421875 -0.22265625 4.82421875 -1 3 C-0.67 2.01 -0.34 1.02 0 0 Z " fill="#F1FBEB" transform="translate(75,125)"/>
<path d="M0 0 C4.75 0.875 4.75 0.875 7 2 C7 5.3 7 8.6 7 12 C4.42446858 8.13670286 2.07822282 4.15644563 0 0 Z " fill="#E7FAEC" transform="translate(97,50)"/>
<path d="M0 0 C0 2.31 0 4.62 0 7 C-1.65 6.67 -3.3 6.34 -5 6 C-5 4.35 -5 2.7 -5 1 C-2 0 -2 0 0 0 Z " fill="#9D9D9D" transform="translate(64,156)"/>
<path d="M0 0 C0.33 0.99 0.66 1.98 1 3 C1.66 3 2.32 3 3 3 C3.33 2.01 3.66 1.02 4 0 C5.65 0 7.3 0 9 0 C8.01 0.495 8.01 0.495 7 1 C7 1.66 7 2.32 7 3 C7.66 3.33 8.32 3.66 9 4 C6.36 4.33 3.72 4.66 1 5 C0.67 3.35 0.34 1.7 0 0 Z " fill="#797979" transform="translate(43,158)"/>
<path d="M0 0 C2.28467375 1.65638847 3.55521 2.6339676 5 5 C5.55091535 8.71199272 5.56773559 12.28880212 5 16 C4.34 16.66 3.68 17.32 3 18 C3.03480469 17.16855469 3.06960937 16.33710937 3.10546875 15.48046875 C3.13253906 14.39378906 3.15960938 13.30710937 3.1875 12.1875 C3.22230469 11.10855469 3.25710937 10.02960938 3.29296875 8.91796875 C2.96120026 5.61355461 2.39882428 5.0966102 0 3 C0 2.01 0 1.02 0 0 Z " fill="#DDF7E5" transform="translate(74,60)"/>
<path d="M0 0 C0.99 0 1.98 0 3 0 C3.33 1.98 3.66 3.96 4 6 C2.68 6.33 1.36 6.66 0 7 C-0.93423645 3.98968256 -1.04449911 3.13349732 0 0 Z " fill="#696969" transform="translate(80,156)"/>
<path d="M0 0 C3.89351852 4.83333333 3.89351852 4.83333333 5.4375 7.25 C7.46139708 9.51676473 9.03939255 9.67993433 12 10 C9.35261084 11.4606285 8.10551666 12 5 12 C4.15885829 10.56705502 3.32734313 9.12845595 2.5 7.6875 C1.80390625 6.48673828 1.80390625 6.48673828 1.09375 5.26171875 C0 3 0 3 0 0 Z " fill="#62A865" transform="translate(129,106)"/>
<path d="M0 0 C0.33 0 0.66 0 1 0 C1 5.94 1 11.88 1 18 C0.01 18 -0.98 18 -2 18 C-1.34 12.06 -0.68 6.12 0 0 Z " fill="#83C37A" transform="translate(49,108)"/>
<path d="M0 0 C0.99 0.33 1.98 0.66 3 1 C1.68 1.33 0.36 1.66 -1 2 C0.98 2.495 0.98 2.495 3 3 C2.67 4.32 2.34 5.64 2 7 C0.68 6.67 -0.64 6.34 -2 6 C-2 4.35 -2 2.7 -2 1 C-1.34 0.67 -0.68 0.34 0 0 Z " fill="#959595" transform="translate(60,142)"/>
<path d="M0 0 C-3.465 2.97 -3.465 2.97 -7 6 C-7.66 5.01 -8.32 4.02 -9 3 C-8.34 2.67 -7.68 2.34 -7 2 C-7 1.34 -7 0.68 -7 0 C-2.25 -1.125 -2.25 -1.125 0 0 Z " fill="#55A36E" transform="translate(97,89)"/>
<path d="M0 0 C2.475 0.495 2.475 0.495 5 1 C5.33 2.32 5.66 3.64 6 5 C5.01 5.33 4.02 5.66 3 6 C3 5.34 3 4.68 3 4 C2.34 4 1.68 4 1 4 C0.67 4.99 0.34 5.98 0 7 C0 4.69 0 2.38 0 0 Z " fill="#548E64" transform="translate(105,41)"/>
<path d="M0 0 C1.98 0.495 1.98 0.495 4 1 C3.67 2.32 3.34 3.64 3 5 C1.68 4.67 0.36 4.34 -1 4 C-0.67 2.68 -0.34 1.36 0 0 Z " fill="#A7A7A7" transform="translate(132,144)"/>
<path d="M0 0 C1.98 0.495 1.98 0.495 4 1 C3.67 2.32 3.34 3.64 3 5 C1.68 4.67 0.36 4.34 -1 4 C-0.67 2.68 -0.34 1.36 0 0 Z " fill="#A7A7A7" transform="translate(106,144)"/>
<path d="M0 0 C2.475 0.495 2.475 0.495 5 1 C4.34 2.32 3.68 3.64 3 5 C2.01 4.67 1.02 4.34 0 4 C0 2.68 0 1.36 0 0 Z " fill="#7E7E7E" transform="translate(156,158)"/>
<path d="M0 0 C4.455 1.98 4.455 1.98 9 4 C9 4.33 9 4.66 9 5 C3.375 5.25 3.375 5.25 0 3 C0 2.01 0 1.02 0 0 Z " fill="#3B7851" transform="translate(135,129)"/>
<path d="M0 0 C1.4606285 2.64738916 2 3.89448334 2 7 C1.67 7.66 1.34 8.32 1 9 C0.34 9 -0.32 9 -1 9 C-1.09765625 2.84765625 -1.09765625 2.84765625 -1 1 C-0.67 0.67 -0.34 0.34 0 0 Z " fill="#4B8159" transform="translate(29,105)"/>
<path d="M0 0 C0.33 0 0.66 0 1 0 C1.28571429 7.42857143 1.28571429 7.42857143 -1 11 C-1.66 10.67 -2.32 10.34 -3 10 C-2.01 6.7 -1.02 3.4 0 0 Z " fill="#E6FCEB" transform="translate(103,76)"/>
<path d="M0 0 C1.859375 0.21484375 1.859375 0.21484375 4 1 C5.265625 3.06640625 5.265625 3.06640625 6.25 5.5625 C6.58515625 6.38878906 6.9203125 7.21507812 7.265625 8.06640625 C7.50796875 8.70449219 7.7503125 9.34257813 8 10 C7.34 10 6.68 10 6 10 C4.4921875 7.8125 4.4921875 7.8125 2.875 5 C2.33617188 4.071875 1.79734375 3.14375 1.2421875 2.1875 C0.83226563 1.465625 0.42234375 0.74375 0 0 Z " fill="#A9DEB7" transform="translate(122,48)"/>
<path d="M0 0 C0.66 0 1.32 0 2 0 C2 1.98 2 3.96 2 6 C1.34 6 0.68 6 0 6 C0 5.01 0 4.02 0 3 C-0.66 3 -1.32 3 -2 3 C-1.67 3.99 -1.34 4.98 -1 6 C-1.66 6 -2.32 6 -3 6 C-3 4.68 -3 3.36 -3 2 C-2.01 2 -1.02 2 0 2 C0 1.34 0 0.68 0 0 Z " fill="#686868" transform="translate(40,156)"/>
<path d="M0 0 C1.32 0.33 2.64 0.66 4 1 C4 2.32 4 3.64 4 5 C2.68 5 1.36 5 0 5 C0 3.35 0 1.7 0 0 Z " fill="#979697" transform="translate(84,144)"/>
<path d="M0 0 C1.9375 0.3125 1.9375 0.3125 4 1 C4.33 1.99 4.66 2.98 5 4 C3.02 4 1.04 4 -1 4 C-0.67 2.68 -0.34 1.36 0 0 Z " fill="#4E875B" transform="translate(84,100)"/>
<path d="M0 0 C0.33 0.99 0.66 1.98 1 3 C-0.65 4.32 -2.3 5.64 -4 7 C-4.66 6.67 -5.32 6.34 -6 6 C-4.02 4.02 -2.04 2.04 0 0 Z " fill="#DDF6E3" transform="translate(99,86)"/>
</svg>
